<svg xmlns="http://www.w3.org/2000/svg" width="29.067" height="28.09" viewBox="0 0 29.067 28.09"><path d="M-687.341-272.157h2.567a.166.166,0,0,0,.166-.166v-.615a.166.166,0,0,1,.166-.166h4.023a.166.166,0,0,0,.166-.166v-.635a.166.166,0,0,0-.166-.166h-4a.166.166,0,0,1-.166-.166v-1.6a.166.166,0,0,1,.166-.166h4a.166.166,0,0,0,.166-.166v-.639a.166.166,0,0,0-.166-.166h-3.989a.166.166,0,0,1-.166-.166v-1.6a.166.166,0,0,1,.166-.166h3.99a.166.166,0,0,0,.166-.166v-.639a.166.166,0,0,0-.166-.166h-3.991a.166.166,0,0,1-.166-.166v-1.608a.166.166,0,0,1,.166-.166h3.992a.166.166,0,0,0,.166-.166v-.644a.166.166,0,0,0-.166-.166h-4a.166.166,0,0,1-.166-.166v-1.6a.166.166,0,0,1,.166-.166h4a.166.166,0,0,0,.166-.166v-.642a.166.166,0,0,0-.166-.166h-4a.166.166,0,0,1-.166-.166v-1.609a.166.166,0,0,1,.166-.166h3.991a.166.166,0,0,0,.166-.166v-.645a.166.166,0,0,0-.166-.166h-4a.166.166,0,0,1-.166-.166v-1.6a.166.166,0,0,1,.166-.166h4a.166.166,0,0,0,.166-.166v-.639a.166.166,0,0,0-.166-.166h-4a.166.166,0,0,1-.166-.166v-1.6a.166.166,0,0,1,.166-.166h4a.166.166,0,0,0,.166-.166v-.639a.166.166,0,0,0-.166-.166h-4a.166.166,0,0,1-.166-.166v-1.6a.166.166,0,0,1,.166-.166h3.995a.166.166,0,0,0,.166-.166v-.644a.166.166,0,0,0-.166-.166h-3.988a.166.166,0,0,1-.166-.166v-1.6a.166.166,0,0,1,.166-.166h8.371a.166.166,0,0,1,.166.166v26.761a.166.166,0,0,0,.166.166h.634a.166.166,0,0,0,.166-.166v-.6a.166.166,0,0,1,.166-.166h3.049a.166.166,0,0,0,.166-.166v-.642a.166.166,0,0,0-.166-.166h-3.017a.166.166,0,0,1-.166-.166v-1.607a.166.166,0,0,1,.166-.166h3.021a.166.166,0,0,0,.166-.166v-.638a.166.166,0,0,0-.166-.166h-3.021a.166.166,0,0,1-.166-.166v-1.6a.166.166,0,0,1,.166-.166h3.021a.166.166,0,0,0,.166-.166v-.639a.166.166,0,0,0-.166-.166h-3.02a.166.166,0,0,1-.166-.166v-1.606a.166.166,0,0,1,.166-.166h3.02a.166.166,0,0,0,.166-.166v-.632a.166.166,0,0,0-.166-.166h-3.023a.166.166,0,0,1-.166-.166v-1.614a.166.166,0,0,1,.166-.166h3.017a.166.166,0,0,0,.166-.166v-.634a.166.166,0,0,0-.166-.166h-3.012a.166.166,0,0,1-.166-.166v-1.613a.166.166,0,0,1,.166-.166h3.019a.166.166,0,0,0,.166-.166v-.632a.166.166,0,0,0-.166-.166h-3.023a.166.166,0,0,1-.166-.166v-1.618a.166.166,0,0,1,.166-.166h3.026a.166.166,0,0,0,.166-.166v-.627a.166.166,0,0,0-.166-.166h-3.026a.166.166,0,0,1-.166-.166v-1.4a.166.166,0,0,1,.212-.159l1.777.508c1.172.334,2.343.675,3.518,1,.227.062.289.156.289.387q-.01,9.4-.005,18.8v.218a.166.166,0,0,0,.166.166h.63a.166.166,0,0,0,.166-.166v-.615a.166.166,0,0,1,.166-.166h1.122a.166.166,0,0,0,.166-.166v-.635a.166.166,0,0,0-.166-.166h-1.1a.166.166,0,0,1-.166-.166v-1.6a.166.166,0,0,1,.166-.166h1.091a.166.166,0,0,0,.166-.166v-.649a.166.166,0,0,0-.166-.166h-1.092a.166.166,0,0,1-.166-.166v-1.593a.166.166,0,0,1,.166-.166h1.093a.166.166,0,0,0,.166-.166v-.64a.166.166,0,0,0-.166-.166h-1.083a.166.166,0,0,1-.166-.166v-1.606a.166.166,0,0,1,.166-.166h1.084a.166.166,0,0,0,.166-.166v-.635a.166.166,0,0,0-.166-.166h-1.087a.166.166,0,0,1-.166-.166v-1.622a.166.166,0,0,1,.166-.166h1.094a.166.166,0,0,0,.166-.166v-.64a.166.166,0,0,0-.166-.166h-1.1a.166.166,0,0,1-.166-.166v-2.163a.165.165,0,0,1,.237-.15h0c.8.4,1.6.809,2.412,1.2a.387.387,0,0,1,.251.41q-.009,7,0,14v.25a.166.166,0,0,0,.166.166h3.052a.166.166,0,0,0,.166-.153c0-.024,0-.048,0-.072,0-.852.008-1.7-.007-2.556a.5.5,0,0,0-.175-.34,2.263,2.263,0,0,1-.3-3.136,1.212,1.212,0,0,1,2.037.127,2.261,2.261,0,0,1-.462,3.051.267.267,0,0,0-.119.172c-.007.91-.005,1.819-.005,2.759a.166.166,0,0,0,.166.166h2.079a.166.166,0,0,1,.166.166v.638a.167.167,0,0,1-.157.166c-.048,0-.1.005-.145.005h-28.485a1.31,1.31,0,0,1-.131-.008.166.166,0,0,1-.148-.165v-.651A.166.166,0,0,1-687.341-272.157Z" transform="translate(687.507 299.256)" fill="#fff"/></svg>