<svg xmlns="http://www.w3.org/2000/svg" width="29.066" height="28.966" viewBox="0 0 29.066 28.966"><path d="M-10036.6-1204.035a.405.405,0,0,1-.4-.4v-.89a.405.405,0,0,1,.4-.4h2.124a.405.405,0,0,0,.405-.4V-1221.9c0-1.587,0-3.17,0-4.757,0-.193.027-.29.261-.328,3.022-.493,6.04-1,9.06-1.5.321-.054.644-.1.975-.158a.4.4,0,0,1,.468.4v22.089a.4.4,0,0,0,.405.4h.9a.4.4,0,0,0,.405-.4v-18.159a.4.4,0,0,1,.4-.4h9.932a.405.405,0,0,1,.4.4v18.181a.405.405,0,0,0,.4.4h2.114a.405.405,0,0,1,.405.4v.89a.405.405,0,0,1-.405.4Zm5-5.414v3.3a.406.406,0,0,0,.4.4h.876a.407.407,0,0,0,.405-.4v-1.6a.4.4,0,0,1,.4-.4h1.646a.405.405,0,0,1,.405.4v1.587a.405.405,0,0,0,.4.4h.879a.406.406,0,0,0,.4-.4v-3.286a.4.4,0,0,0-.4-.4h-5.02A.4.4,0,0,0-10031.6-1209.449Zm16.547,0v.865a.4.4,0,0,0,.405.4h.961a.4.4,0,0,0,.4-.4v-.865a.4.4,0,0,0-.4-.4h-.961A.407.407,0,0,0-10015.053-1209.451Zm-4.155,0v.849a.4.4,0,0,0,.4.4h.975a.406.406,0,0,0,.405-.4v-.849a.4.4,0,0,0-.405-.4h-.975A.4.4,0,0,0-10019.208-1209.447Zm.006-4.141v.863a.4.4,0,0,0,.405.4h.957a.407.407,0,0,0,.406-.4v-.863a.407.407,0,0,0-.406-.4h-.957A.4.4,0,0,0-10019.2-1213.588Zm4.155,0v.859a.4.4,0,0,0,.4.4h.956a.4.4,0,0,0,.4-.4v-.859a.4.4,0,0,0-.4-.4h-.956A.4.4,0,0,0-10015.047-1213.588Zm-12.457,0v.86a.405.405,0,0,0,.4.4h.963a.4.4,0,0,0,.406-.4v-.86a.405.405,0,0,0-.406-.4h-.963A.405.405,0,0,0-10027.5-1213.592Zm-4.158.01v.845a.405.405,0,0,0,.405.4h.972a.4.4,0,0,0,.405-.4v-.845a.4.4,0,0,0-.405-.4h-.972A.4.4,0,0,0-10031.662-1213.583Zm.012-4.149v.861a.405.405,0,0,0,.4.4h.961a.406.406,0,0,0,.405-.4v-.861a.406.406,0,0,0-.405-.4h-.961A.405.405,0,0,0-10031.65-1217.732Zm4.148,0v.855a.4.4,0,0,0,.4.4h.967a.405.405,0,0,0,.406-.4v-.855a.406.406,0,0,0-.406-.4h-.967A.4.4,0,0,0-10027.5-1217.732Zm12.445,0v.853a.4.4,0,0,0,.405.4h.966a.405.405,0,0,0,.406-.4v-.853a.405.405,0,0,0-.406-.4h-.966A.4.4,0,0,0-10015.057-1217.732Zm-4.151,0v.849a.4.4,0,0,0,.4.4h.978a.4.4,0,0,0,.405-.4v-.849a.4.4,0,0,0-.405-.4h-.978A.4.4,0,0,0-10019.208-1217.729Zm-8.293-4.153v.862a.4.4,0,0,0,.4.4h.961a.4.4,0,0,0,.406-.4v-.862a.4.4,0,0,0-.406-.4h-.961A.4.4,0,0,0-10027.5-1221.882Zm-4.149,0v.861a.405.405,0,0,0,.4.4h.959a.405.405,0,0,0,.4-.4v-.861a.405.405,0,0,0-.4-.4h-.959A.405.405,0,0,0-10031.65-1221.882Zm12.439,0v.855a.407.407,0,0,0,.405.4h.971a.4.4,0,0,0,.4-.4v-.855a.4.4,0,0,0-.4-.4h-.971A.4.4,0,0,0-10019.211-1221.882Zm4.158.008v.847a.4.4,0,0,0,.405.4h.964a.4.4,0,0,0,.4-.4v-.847a.4.4,0,0,0-.4-.4h-.964A.406.406,0,0,0-10015.053-1221.875Zm-12.457-4.151v.859a.407.407,0,0,0,.406.4h.967a.405.405,0,0,0,.4-.4v-.859a.4.4,0,0,0-.4-.4h-.967A.405.405,0,0,0-10027.51-1226.025Zm-4.48-3v-3.571a.405.405,0,0,1,.406-.4h5.782a.4.4,0,0,1,.4.4v1.522a4.275,4.275,0,0,0,.007.592c.041.3-.072.4-.365.45-2.043.326-4.084.669-6.124,1a.156.156,0,0,1-.036,0Z" transform="translate(10037.002 1233.001)" fill="#fff"/></svg>